<svg xmlns="http://www.w3.org/2000/svg" viewBox="0 0 1200 630">
  <rect width="1200" height="630" fill="#05070d"/>
  <g stroke="#67e8f9" stroke-opacity=".09">
    <path d="M0 90h1200M0 180h1200M0 270h1200M0 360h1200M0 450h1200M0 540h1200"/>
    <path d="M100 0v630M200 0v630M300 0v630M400 0v630M500 0v630M600 0v630M700 0v630M800 0v630M900 0v630M1000 0v630M1100 0v630"/>
  </g>
  <rect x="82" y="82" width="92" height="92" rx="12" fill="#0a1220" stroke="#67e8f9" stroke-opacity=".55" stroke-width="2"/>
  <text x="128" y="142" fill="#67e8f9" font-family="Arial, sans-serif" font-size="36" font-weight="800" text-anchor="middle">AI</text>
  <text x="82" y="275" fill="#eef6ff" font-family="Arial, 'Microsoft YaHei', sans-serif" font-size="78" font-weight="800">惠选AI</text>
  <text x="82" y="355" fill="#67e8f9" font-family="Arial, 'Microsoft YaHei', sans-serif" font-size="38" font-weight="700">模型价格与优惠指南</text>
  <text x="82" y="432" fill="#9fb0c4" font-family="Arial, 'Microsoft YaHei', sans-serif" font-size="28">订阅套餐 · API 价格 · 官方优惠 · 产品导航</text>
  <rect x="82" y="500" width="330" height="4" fill="#67e8f9"/>
  <rect x="420" y="500" width="120" height="4" fill="#86efac"/>
</svg>
